<svg><symbol viewBox="0 0 51.253 50" id="icon-github"><title>github</title> <g> <path d="M43.377,15.211c-1.834-3.142-4.319-5.627-7.462-7.461C32.775,5.918,29.345,5,25.625,5c-3.719,0-7.149,0.918-10.291,2.75
		c-3.142,1.834-5.627,4.32-7.461,7.461c-1.833,3.142-2.749,6.572-2.749,10.291c0,4.467,1.303,8.483,3.91,12.052
		c2.607,3.567,5.977,6.038,10.104,7.407c0.48,0.09,0.838,0.026,1.067-0.188c0.231-0.213,0.349-0.48,0.349-0.8
		c0-0.054-0.006-0.534-0.015-1.44c-0.009-0.908-0.015-1.701-0.015-2.375l-0.612,0.104c-0.392,0.071-0.886,0.103-1.481,0.094
		c-0.597-0.009-1.215-0.071-1.854-0.188c-0.642-0.113-1.237-0.381-1.789-0.799c-0.552-0.42-0.942-0.967-1.174-1.643l-0.267-0.614
		c-0.18-0.409-0.459-0.862-0.842-1.36s-0.771-0.838-1.16-1.015l-0.188-0.134c-0.124-0.09-0.24-0.195-0.347-0.32
		c-0.107-0.125-0.188-0.25-0.24-0.375c-0.055-0.123-0.01-0.228,0.133-0.308c0.145-0.08,0.4-0.119,0.773-0.119l0.535,0.08
		c0.354,0.071,0.795,0.285,1.32,0.642c0.523,0.354,0.956,0.817,1.295,1.388c0.409,0.729,0.902,1.286,1.48,1.669
		s1.162,0.572,1.748,0.572c0.588,0,1.096-0.045,1.521-0.133c0.428-0.089,0.827-0.224,1.201-0.399c0.16-1.193,0.598-2.109,1.309-2.75
		c-1.015-0.107-1.927-0.269-2.736-0.48c-0.81-0.214-1.646-0.561-2.51-1.042c-0.863-0.479-1.578-1.076-2.147-1.787
		c-0.569-0.713-1.037-1.646-1.401-2.804c-0.365-1.157-0.547-2.491-0.547-4.004c0-2.154,0.703-3.987,2.107-5.5
		c-0.657-1.619-0.596-3.435,0.189-5.444c0.516-0.16,1.28-0.041,2.295,0.359c1.014,0.4,1.758,0.744,2.229,1.027
		c0.473,0.285,0.852,0.525,1.135,0.722c1.656-0.462,3.364-0.694,5.126-0.694c1.763,0,3.472,0.231,5.126,0.694l1.014-0.64
		c0.694-0.428,1.514-0.819,2.455-1.176c0.944-0.355,1.666-0.453,2.164-0.294c0.801,2.011,0.871,3.827,0.213,5.446
		c1.405,1.514,2.109,3.346,2.109,5.5c0,1.512-0.184,2.852-0.548,4.016c-0.364,1.168-0.836,2.102-1.414,2.805
		c-0.579,0.703-1.3,1.295-2.163,1.774c-0.861,0.48-1.699,0.827-2.509,1.041c-0.812,0.214-1.722,0.374-2.736,0.48
		c0.925,0.801,1.388,2.063,1.388,3.791v5.632c0,0.318,0.111,0.587,0.334,0.8c0.224,0.214,0.574,0.276,1.056,0.188
		c4.129-1.37,7.497-3.84,10.104-7.408c2.605-3.567,3.91-7.585,3.91-12.053C46.126,21.783,45.209,18.353,43.377,15.211z"/> </g> </symbol><symbol viewBox="-0.801 -0.174 51.253 50" id="icon-instagram"><title>instagram</title> <g> <g> <g> <path d="M24.825,28.83c2.207,0,4.006-1.796,4.006-4.004c0-0.872-0.285-1.676-0.757-2.333c-0.728-1.009-1.91-1.67-3.246-1.67
				c-1.337,0-2.519,0.66-3.248,1.668c-0.474,0.658-0.756,1.462-0.757,2.334C20.821,27.034,22.618,28.83,24.825,28.83z"/> <polygon points="33.569,19.928 33.569,16.572 33.569,16.072 33.067,16.073 29.713,16.085 29.725,19.941 			"/> <path d="M24.826,4.826c-11.027,0-20,8.973-20,20s8.973,20,20,20s20-8.973,20-20S35.855,4.826,24.826,4.826z M36.2,22.492v9.312
				c0,2.426-1.972,4.397-4.396,4.397H17.848c-2.425,0-4.396-1.972-4.396-4.397v-9.312v-4.644c0-2.424,1.972-4.396,4.396-4.396
				h13.955c2.425,0,4.396,1.972,4.396,4.396V22.492z"/> <path d="M31.048,24.826c0,3.43-2.791,6.222-6.222,6.222s-6.221-2.792-6.221-6.222c0-0.825,0.165-1.614,0.457-2.333h-3.396v9.312
				c0,1.204,0.978,2.179,2.181,2.179h13.955c1.201,0,2.18-0.975,2.18-2.179v-9.312h-3.396
				C30.881,23.212,31.048,24.001,31.048,24.826z"/> </g> </g> </g> </symbol><symbol viewBox="-0.801 -0.174 51.253 50" id="icon-twitter"><title>twitter</title> <g> <g> <path d="M24.826,4.826c-11.027,0-20,8.973-20,20s8.973,20,20,20s20-8.973,20-20S35.855,4.826,24.826,4.826z M33.748,20.249
			c0.009,0.198,0.014,0.398,0.014,0.597c0,6.083-4.629,13.096-13.098,13.096c-2.6,0-5.02-0.761-7.057-2.067
			c0.36,0.043,0.727,0.064,1.099,0.064c2.157,0,4.142-0.736,5.717-1.971c-2.014-0.037-3.715-1.367-4.3-3.197
			c0.28,0.054,0.569,0.083,0.865,0.083c0.419,0,0.827-0.055,1.213-0.16c-2.105-0.422-3.691-2.282-3.691-4.514
			c0-0.019,0-0.04,0-0.058c0.62,0.344,1.33,0.551,2.084,0.575c-1.234-0.825-2.047-2.234-2.047-3.831
			c0-0.845,0.227-1.636,0.622-2.315c2.271,2.786,5.663,4.617,9.488,4.811c-0.079-0.337-0.118-0.688-0.118-1.049
			c0-2.542,2.061-4.604,4.603-4.604c1.324,0,2.519,0.56,3.359,1.454c1.05-0.206,2.032-0.588,2.925-1.118
			c-0.347,1.076-1.074,1.977-2.027,2.547c0.932-0.111,1.822-0.357,2.644-0.724C35.428,18.79,34.648,19.601,33.748,20.249z"/> </g> </g> </symbol></svg>