<?xml version="1.0" encoding="utf-8"?>
<!-- Generator: Adobe Illustrator 15.1.0, SVG Export Plug-In . SVG Version: 6.00 Build 0)  -->
<!DOCTYPE svg PUBLIC "-//W3C//DTD SVG 1.1//EN" "http://www.w3.org/Graphics/SVG/1.1/DTD/svg11.dtd">
<svg version="1.1" id="Capa_1" xmlns="http://www.w3.org/2000/svg" xmlns:xlink="http://www.w3.org/1999/xlink" x="0px" y="0px"
	 width="51.253px" height="50px" viewBox="0 0 51.253 50" enable-background="new 0 0 51.253 50" xml:space="preserve">
<g>
	<path d="M43.377,15.211c-1.834-3.142-4.319-5.627-7.462-7.461C32.775,5.918,29.345,5,25.625,5c-3.719,0-7.149,0.918-10.291,2.75
		c-3.142,1.834-5.627,4.32-7.461,7.461c-1.833,3.142-2.749,6.572-2.749,10.291c0,4.467,1.303,8.483,3.91,12.052
		c2.607,3.567,5.977,6.038,10.104,7.407c0.48,0.09,0.838,0.026,1.067-0.188c0.231-0.213,0.349-0.48,0.349-0.8
		c0-0.054-0.006-0.534-0.015-1.44c-0.009-0.908-0.015-1.701-0.015-2.375l-0.612,0.104c-0.392,0.071-0.886,0.103-1.481,0.094
		c-0.597-0.009-1.215-0.071-1.854-0.188c-0.642-0.113-1.237-0.381-1.789-0.799c-0.552-0.42-0.942-0.967-1.174-1.643l-0.267-0.614
		c-0.18-0.409-0.459-0.862-0.842-1.36s-0.771-0.838-1.16-1.015l-0.188-0.134c-0.124-0.09-0.24-0.195-0.347-0.32
		c-0.107-0.125-0.188-0.25-0.24-0.375c-0.055-0.123-0.01-0.228,0.133-0.308c0.145-0.08,0.4-0.119,0.773-0.119l0.535,0.08
		c0.354,0.071,0.795,0.285,1.32,0.642c0.523,0.354,0.956,0.817,1.295,1.388c0.409,0.729,0.902,1.286,1.48,1.669
		s1.162,0.572,1.748,0.572c0.588,0,1.096-0.045,1.521-0.133c0.428-0.089,0.827-0.224,1.201-0.399c0.16-1.193,0.598-2.109,1.309-2.75
		c-1.015-0.107-1.927-0.269-2.736-0.48c-0.81-0.214-1.646-0.561-2.51-1.042c-0.863-0.479-1.578-1.076-2.147-1.787
		c-0.569-0.713-1.037-1.646-1.401-2.804c-0.365-1.157-0.547-2.491-0.547-4.004c0-2.154,0.703-3.987,2.107-5.5
		c-0.657-1.619-0.596-3.435,0.189-5.444c0.516-0.16,1.28-0.041,2.295,0.359c1.014,0.4,1.758,0.744,2.229,1.027
		c0.473,0.285,0.852,0.525,1.135,0.722c1.656-0.462,3.364-0.694,5.126-0.694c1.763,0,3.472,0.231,5.126,0.694l1.014-0.64
		c0.694-0.428,1.514-0.819,2.455-1.176c0.944-0.355,1.666-0.453,2.164-0.294c0.801,2.011,0.871,3.827,0.213,5.446
		c1.405,1.514,2.109,3.346,2.109,5.5c0,1.512-0.184,2.852-0.548,4.016c-0.364,1.168-0.836,2.102-1.414,2.805
		c-0.579,0.703-1.3,1.295-2.163,1.774c-0.861,0.48-1.699,0.827-2.509,1.041c-0.812,0.214-1.722,0.374-2.736,0.48
		c0.925,0.801,1.388,2.063,1.388,3.791v5.632c0,0.318,0.111,0.587,0.334,0.8c0.224,0.214,0.574,0.276,1.056,0.188
		c4.129-1.37,7.497-3.84,10.104-7.408c2.605-3.567,3.91-7.585,3.91-12.053C46.126,21.783,45.209,18.353,43.377,15.211z"/>
</g>
</svg>
