<?xml version="1.0" encoding="utf-8"?>
<!-- Generator: Adobe Illustrator 15.1.0, SVG Export Plug-In . SVG Version: 6.00 Build 0)  -->
<!DOCTYPE svg PUBLIC "-//W3C//DTD SVG 1.1//EN" "http://www.w3.org/Graphics/SVG/1.1/DTD/svg11.dtd">
<svg version="1.1" id="Capa_1" xmlns="http://www.w3.org/2000/svg" xmlns:xlink="http://www.w3.org/1999/xlink" x="0px" y="0px"
	 width="51.253px" height="50px" viewBox="-0.801 -0.174 51.253 50" enable-background="new -0.801 -0.174 51.253 50"
	 xml:space="preserve">
<g>
	<g>
		<g>
			<path d="M24.825,28.83c2.207,0,4.006-1.796,4.006-4.004c0-0.872-0.285-1.676-0.757-2.333c-0.728-1.009-1.91-1.67-3.246-1.67
				c-1.337,0-2.519,0.66-3.248,1.668c-0.474,0.658-0.756,1.462-0.757,2.334C20.821,27.034,22.618,28.83,24.825,28.83z"/>
			<polygon points="33.569,19.928 33.569,16.572 33.569,16.072 33.067,16.073 29.713,16.085 29.725,19.941 			"/>
			<path d="M24.826,4.826c-11.027,0-20,8.973-20,20s8.973,20,20,20s20-8.973,20-20S35.855,4.826,24.826,4.826z M36.2,22.492v9.312
				c0,2.426-1.972,4.397-4.396,4.397H17.848c-2.425,0-4.396-1.972-4.396-4.397v-9.312v-4.644c0-2.424,1.972-4.396,4.396-4.396
				h13.955c2.425,0,4.396,1.972,4.396,4.396V22.492z"/>
			<path d="M31.048,24.826c0,3.43-2.791,6.222-6.222,6.222s-6.221-2.792-6.221-6.222c0-0.825,0.165-1.614,0.457-2.333h-3.396v9.312
				c0,1.204,0.978,2.179,2.181,2.179h13.955c1.201,0,2.18-0.975,2.18-2.179v-9.312h-3.396
				C30.881,23.212,31.048,24.001,31.048,24.826z"/>
		</g>
	</g>
</g>
</svg>
