<?xml version="1.0" encoding="utf-8"?>
<!-- Generator: Adobe Illustrator 15.1.0, SVG Export Plug-In . SVG Version: 6.00 Build 0)  -->
<!DOCTYPE svg PUBLIC "-//W3C//DTD SVG 1.1//EN" "http://www.w3.org/Graphics/SVG/1.1/DTD/svg11.dtd">
<svg version="1.1" id="Capa_1" xmlns="http://www.w3.org/2000/svg" xmlns:xlink="http://www.w3.org/1999/xlink" x="0px" y="0px"
	 width="51.253px" height="50px" viewBox="-0.801 -0.174 51.253 50" enable-background="new -0.801 -0.174 51.253 50"
	 xml:space="preserve">
<g>
	<g>
		<path d="M24.826,4.826c-11.027,0-20,8.973-20,20s8.973,20,20,20s20-8.973,20-20S35.855,4.826,24.826,4.826z M33.748,20.249
			c0.009,0.198,0.014,0.398,0.014,0.597c0,6.083-4.629,13.096-13.098,13.096c-2.6,0-5.02-0.761-7.057-2.067
			c0.36,0.043,0.727,0.064,1.099,0.064c2.157,0,4.142-0.736,5.717-1.971c-2.014-0.037-3.715-1.367-4.3-3.197
			c0.28,0.054,0.569,0.083,0.865,0.083c0.419,0,0.827-0.055,1.213-0.16c-2.105-0.422-3.691-2.282-3.691-4.514
			c0-0.019,0-0.04,0-0.058c0.62,0.344,1.33,0.551,2.084,0.575c-1.234-0.825-2.047-2.234-2.047-3.831
			c0-0.845,0.227-1.636,0.622-2.315c2.271,2.786,5.663,4.617,9.488,4.811c-0.079-0.337-0.118-0.688-0.118-1.049
			c0-2.542,2.061-4.604,4.603-4.604c1.324,0,2.519,0.56,3.359,1.454c1.05-0.206,2.032-0.588,2.925-1.118
			c-0.347,1.076-1.074,1.977-2.027,2.547c0.932-0.111,1.822-0.357,2.644-0.724C35.428,18.79,34.648,19.601,33.748,20.249z"/>
	</g>
</g>
</svg>
